<?xml version="1.0" encoding="UTF-8"?>
<svg id="Capa_1" data-name="Capa 1" xmlns="http://www.w3.org/2000/svg" viewBox="0 0 2202.44 1080">
  <defs>
    <style>
      .cls-1 {
        fill: #262728;
      }
    </style>
  </defs>
  <g>
    <g>
      <path class="cls-1" d="M1154.57,324.28c48.41,0,82.8,25.13,91.8,73.54h-54.76c-4.76-19.84-18.52-31.22-37.83-31.22-26.19,0-42.33,21.16-42.33,55.55s15.61,56.35,43.65,56.35c19.31,0,33.07-9.79,38.62-27.78h-38.89v-35.98h92.06v102.38h-30.95l-3.71-25.13c-13.49,18.52-34.92,28.84-62.17,28.84-56.88,0-92.59-38.62-92.59-97.36s37.3-99.21,97.09-99.21Z"/>
      <path class="cls-1" d="M1264.09,322.95h51.32v38.36h-51.32v-38.36ZM1264.36,371.89h51.06v145.24h-51.06v-145.24Z"/>
      <path class="cls-1" d="M1331.29,371.89h21.41c14.6,0,26.56,11.6,27,26.19h0c7.41-21.69,23.81-29.89,44.18-29.89,30.16,0,49.74,20.11,49.74,55.29v93.65h-51.06v-78.31c0-20.11-4.76-28.57-18.78-28.57s-21.43,8.73-21.43,28.57v78.31h-51.06v-145.24Z"/>
      <path class="cls-1" d="M1488.96,322.69h51.06v91.8l43.12-42.59h63.23l-58.99,57.41,60.32,87.83h-58.99l-37.3-57.94-11.38,11.11v46.83h-51.06v-194.44Z"/>
      <path class="cls-1" d="M1746.37,324.28c48.41,0,82.8,25.13,91.8,73.54h-54.76c-4.76-19.84-18.52-31.22-37.83-31.22-26.19,0-42.33,21.16-42.33,55.55s15.61,56.35,43.65,56.35c19.31,0,33.07-9.79,38.62-27.78h-38.89v-35.98h92.06v102.38h-30.95l-3.71-25.13c-13.49,18.52-34.92,28.84-62.17,28.84-56.88,0-92.59-38.62-92.59-97.36s37.3-99.21,97.09-99.21Z"/>
      <path class="cls-1" d="M1932.87,368.19c48.41,0,80.16,30.69,80.16,76.19s-31.74,76.46-80.16,76.46-80.42-30.43-80.42-76.46,32.01-76.19,80.42-76.19ZM1932.87,480.89c18.25,0,28.57-13.76,28.57-36.51s-10.32-36.24-28.57-36.24-28.57,13.76-28.57,36.24,10.32,36.51,28.57,36.51Z"/>
    </g>
    <g>
      <path class="cls-1" d="M1057.48,559.16h60.67c62.04,0,96.75,34.98,96.75,97.84s-34.71,97.57-96.75,97.57h-60.67v-195.41ZM1118.16,742.55c53.3,0,83.09-28.42,83.09-85.55s-29.79-85.82-83.09-85.82h-47.83v171.37h47.83Z"/>
      <path class="cls-1" d="M1301.27,606.72c39.09,0,64.5,27.88,64.5,71.33v8.47h-117.52c1.37,31.43,17.49,59.03,53.57,59.03,26.51,0,42.09-15.03,48.38-35.53h13.39c-7.93,29.24-30.34,47.28-62.04,47.28-40.72,0-66.41-29.79-66.41-75.43s25.69-75.16,66.14-75.16ZM1352.38,675.59c-1.37-31.43-16.67-57.12-51.11-57.12s-50.84,26.51-52.75,57.12h103.86Z"/>
      <path class="cls-1" d="M1368.78,609.45h13.67l50.56,131.46,51.11-131.46h13.39l-56.85,145.13h-15.03l-56.85-145.13Z"/>
      <path class="cls-1" d="M1513.36,708.66c1.37,22.14,18.86,36.9,49.47,36.9,24.32,0,44-9.56,44-30.06s-20.23-24.33-47.28-28.42c-25.69-4.1-54.93-9.56-54.93-39.08,0-24.87,21.86-41.27,53.3-41.27,34.71,0,55.21,19.68,58.49,46.46h-13.12c-2.19-20.23-19.13-34.71-45.37-34.71-23.78,0-40.18,11.75-40.18,28.97,0,20.77,23.23,24.6,46.19,28.15,29.52,4.65,56.03,9.57,56.03,39.63s-25.69,42.09-57.12,42.09c-39.63,0-61.22-20.5-62.59-48.65h13.12Z"/>
    </g>
  </g>
  <g>
    <path class="cls-1" d="M510.14,762.63c-.34,35.44-4.16,70.75-10.34,105.2-1.98,11.05,3.9,19.25,13.98,20.87,19.44,3.12,37.01,2.45,55.95-2.51,9.53-2.49,14.27-8.42,13.18-19.62-2.77-28.18-9.6-60.28-12.92-88.45-1.68-14.25,3.63-19.31,12.63-28.38,89.88-66.11,187.29-126.51,294.13-161.45,10.16-8.05,16.72-21.66,12.57-33.6-9.03-25.96-22.89-43.99-39.22-65.36-4.19-5.49-15.04-4.07-20.07-.19-88.35,68.23-178.31,177.29-282.67,213.58-75.65,26.3-191.41-211.22-316.74-206.05-11.43.47-27.05,4.96-34.53,17.1-12.18,19.77-8.28,43.08,16.73,50.14,112.79,31.84,203.15,103.04,290.77,178.72,4.68,4.04,8.15,13.3,6.55,20Z"/>
    <path class="cls-1" d="M718.37,268.34c-32.21,112.86-82.45,223.2-136.87,327.43-18.8,22.9-51.63,35.6-69.23-3.34-43.65-96.56-97.16-205.19-143.11-300.36-17.61-36.47-4.84-57.11,21.45-78.33,25.36-20.47,55.64-15.39,88.04-15.01,12.26.14,18.21,24.22,19.32,28.8,6.95,28.48,22.82,384.9,43.33,356.4,15.6-21.68,58.73-320,40.48-369.54-4.92-13.37,20.16-31.86,36.74-22.39,21.84,12.47,58.61,22.13,82.2,34.23,18.51,9.49,22.34,23.59,17.64,42.09Z"/>
    <path class="cls-1" d="M502.91,655.53c-.26,0-.53-.03-.83-.08-8.51-1.44-31.55-29.11-50.07-51.34-16.82-20.2-34.22-41.08-48.79-53.85-4.76-4.17-11.16-9.89-18.51-16.46-26.01-23.25-65.33-58.39-84.77-71.79-22.81-15.72-33.14-22.49-48.78-32.74l-12.32-8.09c-6.03-5.04-3.99-14.64-.93-25.74.45-1.64.88-3.19,1.23-4.63,6.92-28.25,24.33-58.44,52.42-58.44.76,0,1.53.02,2.3.07,1.39.08,2.72.12,3.98.12,5.75,0,10.23-.75,13.83-1.35,2.5-.42,4.66-.78,6.58-.78,3.04,0,6.17.88,11.38,5.03,6.87,15.01,20.77,40.13,41.34,74.7,1.08,1.81,2.39,4.04,3.92,6.64,7.81,13.25,20.88,35.41,36.57,59.81,37.58,58.44,96.25,157.94,93.7,176.14-.24,1.69-1,2.47-1.04,2.5-.08.05-.46.28-1.21.28Z"/>
    <path class="cls-1" d="M596.06,643.98c-3.51,2.65-8.08-1.57-5.71-5.28,22.39-35.06,43.85-70.88,64.73-105.72,32.01-53.41,65.1-108.65,101.68-161.44,6.15-8.87,15.27-13.96,25.03-13.96,4.24,0,8.47.95,12.58,2.84,19.64,9.01,33.57,17.05,50.89,33.71,4.44,4.27.6,15.65-2.79,25.69-.94,2.77-1.86,5.5-2.63,8.1-8.36,28.26-75.72,73.87-97.85,88.85-2.49,1.68-4.51,3.05-5.96,4.06-14.94,10.39-39.64,33.36-65.78,57.68-23.9,22.23-53.84,50.08-74.18,65.47Z"/>
  </g>
</svg>