<?xml version="1.0" encoding="UTF-8"?>
<svg id="Capa_1" data-name="Capa 1" xmlns="http://www.w3.org/2000/svg" viewBox="0 0 1864.19 1080">
  <defs>
    <style>
      .cls-1 {
        fill: #f5f2eb;
      }

      .cls-2 {
        fill: #d4f57a;
      }
    </style>
  </defs>
  <g>
    <path class="cls-1" d="M376.24,224.81c70.69,0,120.9,36.7,134.04,107.39h-79.96c-6.95-28.97-27.04-45.58-55.24-45.58-38.24,0-61.81,30.9-61.81,81.12s22.79,82.28,63.74,82.28c28.2,0,48.29-14.29,56.4-40.56h-56.78v-52.54h134.42v149.49h-45.19l-5.41-36.7c-19.7,27.04-50.99,42.11-90.77,42.11-83.05,0-135.2-56.4-135.2-142.15s54.47-144.86,141.77-144.86Z"/>
    <path class="cls-1" d="M536.16,222.89h74.94v56.01h-74.94v-56.01ZM536.55,294.35h74.55v212.07h-74.55v-212.07Z"/>
    <path class="cls-1" d="M634.28,294.35h31.27c21.32,0,38.77,16.94,39.42,38.24h0c10.82-31.67,34.77-43.65,64.51-43.65,44.04,0,72.62,29.36,72.62,80.73v136.74h-74.55v-114.34c0-29.36-6.95-41.72-27.43-41.72s-31.29,12.75-31.29,41.72v114.34h-74.55v-212.07Z"/>
    <path class="cls-1" d="M864.5,222.5h74.55v134.04l62.96-62.2h92.32l-86.14,83.82,88.07,128.24h-86.14l-54.46-84.59-16.61,16.22v68.37h-74.55V222.5Z"/>
    <path class="cls-1" d="M1240.35,224.81c70.69,0,120.9,36.7,134.04,107.39h-79.96c-6.95-28.97-27.04-45.58-55.24-45.58-38.24,0-61.81,30.9-61.81,81.12s22.79,82.28,63.74,82.28c28.2,0,48.29-14.29,56.4-40.56h-56.78v-52.54h134.42v149.49h-45.19l-5.41-36.7c-19.7,27.04-50.99,42.11-90.77,42.11-83.05,0-135.2-56.4-135.2-142.15s54.47-144.86,141.77-144.86Z"/>
    <path class="cls-1" d="M1512.68,288.94c70.69,0,117.04,44.81,117.04,111.25s-46.35,111.64-117.04,111.64-117.43-44.43-117.43-111.64,46.74-111.25,117.43-111.25ZM1512.68,453.49c26.65,0,41.72-20.09,41.72-53.31s-15.06-52.92-41.72-52.92-41.72,20.09-41.72,52.92,15.06,53.31,41.72,53.31Z"/>
  </g>
  <g>
    <path class="cls-2" d="M234.47,567.79h88.59c90.59,0,141.27,51.08,141.27,142.87s-50.68,142.47-141.27,142.47h-88.59v-285.34ZM323.07,835.57c77.82,0,121.32-41.5,121.32-124.91s-43.5-125.31-121.32-125.31h-69.83v250.22h69.83Z"/>
    <path class="cls-2" d="M590.45,637.23c57.07,0,94.18,40.7,94.18,104.16v12.37h-171.6c1.99,45.89,25.54,86.2,78.22,86.2,38.71,0,61.45-21.95,70.64-51.88h19.55c-11.58,42.7-44.3,69.04-90.59,69.04-59.46,0-96.97-43.5-96.97-110.14s37.51-109.75,96.57-109.75ZM665.07,737.79c-1.99-45.89-24.34-83.4-74.63-83.4s-74.23,38.71-77.02,83.4h151.65Z"/>
    <path class="cls-2" d="M689.01,641.21h19.96l73.83,191.96,74.63-191.96h19.55l-83.01,211.91h-21.95l-83.01-211.91Z"/>
    <path class="cls-2" d="M900.12,786.08c1.99,32.33,27.53,53.88,72.23,53.88,35.51,0,64.25-13.96,64.25-43.9s-29.53-35.52-69.04-41.5c-37.52-5.99-80.21-13.96-80.21-57.07,0-36.31,31.92-60.26,77.82-60.26,50.68,0,80.61,28.73,85.4,67.84h-19.15c-3.19-29.53-27.93-50.68-66.24-50.68-34.72,0-58.66,17.16-58.66,42.3,0,30.33,33.92,35.91,67.44,41.1,43.1,6.79,81.81,13.97,81.81,57.87s-37.51,61.45-83.4,61.45c-57.87,0-89.39-29.93-91.39-71.04h19.15Z"/>
  </g>
</svg>