<?xml version="1.0" encoding="UTF-8"?>
<svg id="Capa_1" data-name="Capa 1" xmlns="http://www.w3.org/2000/svg" viewBox="0 0 1080 1080">
  <defs>
    <style>
      .cls-1 {
        fill: #d4f57a;
      }
    </style>
  </defs>
  <path class="cls-1" d="M509.34,768.61c-.35,36.4-4.28,72.65-10.62,108.03-2.03,11.34,4.01,19.77,14.36,21.43,19.96,3.2,38,2.51,57.45-2.58,9.79-2.56,14.66-8.65,13.53-20.15-2.84-28.94-9.85-61.9-13.27-90.82-1.73-14.63,3.73-19.83,12.97-29.14,92.3-67.89,192.32-129.91,302.03-165.78,10.44-8.27,17.17-22.24,12.91-34.5-9.28-26.65-23.5-45.17-40.27-67.12-4.31-5.64-15.45-4.18-20.61-.19-90.72,70.06-183.1,182.05-290.26,219.32-77.68,27.01-196.55-216.89-325.25-211.59-11.74.48-27.78,5.09-35.46,17.56-12.51,20.3-8.5,44.24,17.18,51.49,115.82,32.7,208.6,105.8,298.58,183.52,4.81,4.15,8.37,13.66,6.73,20.53Z"/>
  <path class="cls-1" d="M723.16,261.04c-33.08,115.89-84.66,229.2-140.55,336.23-19.31,23.51-53.02,36.56-71.09-3.43-44.82-99.16-99.77-210.7-146.95-308.42-18.08-37.45-4.97-58.64,22.02-80.43,26.04-21.02,57.13-15.8,90.4-15.41,12.59.15,18.7,24.87,19.84,29.57,7.14,29.24,23.44,395.24,44.49,365.98,16.02-22.26,60.31-328.6,41.57-379.46-5.06-13.73,20.7-32.72,37.73-23,22.42,12.81,60.18,22.73,84.41,35.15,19,9.74,22.94,24.22,18.12,43.23Z"/>
  <path class="cls-1" d="M501.92,658.64c-.26,0-.55-.03-.85-.08-8.73-1.48-32.4-29.89-51.42-52.72-17.27-20.74-35.14-42.18-50.1-55.29-4.89-4.28-11.46-10.16-19.01-16.91-26.71-23.88-67.08-59.96-87.05-73.72-23.43-16.14-34.03-23.09-50.09-33.62l-12.65-8.31c-6.19-5.17-4.09-15.03-.95-26.43.46-1.68.9-3.28,1.26-4.75,7.11-29.01,24.98-60.01,53.83-60.01.78,0,1.57.02,2.36.07,1.43.08,2.79.12,4.09.12,5.9,0,10.5-.77,14.2-1.38,2.57-.43,4.78-.8,6.75-.8,3.12,0,6.34.9,11.69,5.16,7.05,15.41,21.32,41.21,42.45,76.71,1.11,1.86,2.46,4.15,4.03,6.81,8.02,13.6,21.44,36.36,37.55,61.42,38.59,60.01,98.84,162.18,96.22,180.87-.24,1.73-1.03,2.53-1.06,2.56-.08.06-.47.28-1.24.28Z"/>
  <path class="cls-1" d="M597.56,646.77c-3.6,2.73-8.3-1.61-5.86-5.42,22.99-36,45.03-72.78,66.47-108.56,32.87-54.85,66.85-111.56,104.41-165.77,6.31-9.11,15.68-14.34,25.7-14.34,4.36,0,8.7.98,12.92,2.91,20.17,9.25,34.47,17.51,52.25,34.61,4.56,4.39.61,16.07-2.87,26.38-.96,2.85-1.91,5.65-2.7,8.32-8.59,29.02-77.75,75.85-100.48,91.24-2.55,1.73-4.63,3.13-6.12,4.17-15.34,10.67-40.7,34.26-67.55,59.23-24.54,22.83-55.29,51.43-76.17,67.22Z"/>
</svg>