<?xml version="1.0" encoding="UTF-8"?>
<svg id="Capa_1" data-name="Capa 1" xmlns="http://www.w3.org/2000/svg" viewBox="0 0 3961.38 1080">
  <defs>
    <style>
      .cls-1 {
        fill: #f5f2eb;
      }

      .cls-2 {
        fill: #d4f57a;
      }
    </style>
  </defs>
  <g>
    <path class="cls-1" d="M1206.29,372.73c84.14,0,143.91,43.68,159.55,127.82h-95.18c-8.28-34.49-32.19-54.26-65.75-54.26-45.52,0-73.57,36.79-73.57,96.56s27.13,97.94,75.87,97.94c33.56,0,57.47-17.01,67.13-48.28h-67.59v-62.53h160v177.94h-53.79l-6.44-43.68c-23.45,32.19-60.69,50.12-108.05,50.12-98.86,0-160.93-67.13-160.93-169.21s64.83-172.42,168.75-172.42Z"/>
    <path class="cls-1" d="M1396.64,370.43h89.2v66.67h-89.2v-66.67ZM1397.1,455.49h88.74v252.43h-88.74v-252.43Z"/>
    <path class="cls-1" d="M1513.43,455.49h37.22c25.37,0,46.15,20.16,46.92,45.52h0c12.88-37.7,41.38-51.96,76.78-51.96,52.42,0,86.45,34.95,86.45,96.1v162.77h-88.74v-136.1c0-34.94-8.28-49.66-32.65-49.66s-37.24,15.17-37.24,49.66v136.1h-88.74v-252.43Z"/>
    <path class="cls-1" d="M1787.46,369.97h88.74v159.55l74.94-74.03h109.89l-102.54,99.78,104.83,152.65h-102.54l-64.83-100.69-19.77,19.31v81.38h-88.74v-337.95Z"/>
    <path class="cls-1" d="M2234.85,372.73c84.14,0,143.91,43.68,159.55,127.82h-95.18c-8.28-34.49-32.19-54.26-65.75-54.26-45.52,0-73.57,36.79-73.57,96.56s27.13,97.94,75.87,97.94c33.56,0,57.47-17.01,67.13-48.28h-67.59v-62.53h160v177.94h-53.79l-6.44-43.68c-23.45,32.19-60.69,50.12-108.05,50.12-98.86,0-160.93-67.13-160.93-169.21s64.83-172.42,168.75-172.42Z"/>
    <path class="cls-1" d="M2559,449.06c84.14,0,139.31,53.34,139.31,132.42s-55.17,132.88-139.31,132.88-139.78-52.88-139.78-132.88,55.64-132.42,139.78-132.42ZM2559,644.93c31.72,0,49.65-23.91,49.65-63.45s-17.93-62.99-49.65-62.99-49.66,23.91-49.66,62.99,17.93,63.45,49.66,63.45Z"/>
    <path class="cls-1" d="M2736.02,379.17h102.07c104.38,0,162.77,58.85,162.77,164.61s-58.39,164.15-162.77,164.15h-102.07v-328.75ZM2838.1,687.69c89.66,0,139.78-47.82,139.78-143.92s-50.12-144.38-139.78-144.38h-80.46v288.29h80.46Z"/>
    <path class="cls-1" d="M3146.16,459.17c65.76,0,108.51,46.9,108.51,120.01v14.25h-197.71c2.3,52.88,29.43,99.32,90.12,99.32,44.6,0,70.81-25.29,81.38-59.77h22.53c-13.34,49.2-51.04,79.54-104.38,79.54-68.51,0-111.73-50.12-111.73-126.9s43.22-126.45,111.27-126.45ZM3232.14,575.04c-2.3-52.88-28.05-96.1-85.98-96.1s-85.52,44.6-88.74,96.1h174.72Z"/>
    <path class="cls-1" d="M3259.73,463.77h22.99l85.06,221.16,85.98-221.16h22.53l-95.64,244.15h-25.29l-95.64-244.15Z"/>
    <path class="cls-1" d="M3502.96,630.68c2.3,37.24,31.72,62.07,83.23,62.07,40.92,0,74.03-16.09,74.03-50.58s-34.03-40.92-79.54-47.82c-43.23-6.9-92.42-16.09-92.42-65.75,0-41.84,36.78-69.43,89.66-69.43,58.39,0,92.87,33.11,98.39,78.16h-22.07c-3.68-34.02-32.19-58.39-76.32-58.39-40.01,0-67.59,19.77-67.59,48.74,0,34.94,39.08,41.38,77.7,47.36,49.66,7.82,94.26,16.09,94.26,66.67s-43.22,70.81-96.09,70.81c-66.67,0-103-34.48-105.29-81.84h22.07Z"/>
  </g>
  <g>
    <path class="cls-2" d="M530.4,714.44c-.27,27.77-3.26,55.43-8.1,82.43-1.55,8.66,3.06,15.08,10.96,16.35,15.23,2.44,29,1.92,43.84-1.97,7.47-1.95,11.18-6.6,10.32-15.37-2.17-22.08-7.52-47.24-10.13-69.3-1.32-11.16,2.85-15.13,9.9-22.24,70.43-51.8,146.75-99.13,230.47-126.5,7.96-6.31,13.1-16.97,9.85-26.33-7.08-20.34-17.93-34.47-30.73-51.21-3.29-4.3-11.79-3.19-15.73-.15-69.22,53.46-139.71,138.91-221.48,167.35-59.27,20.61-149.97-165.5-248.18-161.45-8.96.37-21.2,3.88-27.06,13.4-9.54,15.49-6.49,33.76,13.11,39.29,88.38,24.95,159.17,80.73,227.83,140.03,3.67,3.17,6.39,10.42,5.13,15.67Z"/>
    <path class="cls-2" d="M693.55,327.14c-25.24,88.43-64.6,174.89-107.24,256.56-14.73,17.94-40.46,27.89-54.25-2.61-34.2-75.66-76.13-160.78-112.13-235.34-13.8-28.58-3.79-44.75,16.81-61.37,19.87-16.04,43.6-12.06,68.98-11.76,9.61.11,14.27,18.98,15.14,22.57,5.45,22.31,17.88,301.59,33.95,279.26,12.22-16.99,46.02-250.73,31.72-289.55-3.86-10.47,15.8-24.97,28.79-17.55,17.11,9.77,45.92,17.34,64.41,26.82,14.5,7.43,17.5,18.48,13.82,32.98Z"/>
    <path class="cls-2" d="M524.73,630.52c-.2,0-.42-.02-.65-.06-6.66-1.13-24.72-22.81-39.23-40.23-13.18-15.82-26.81-32.19-38.23-42.19-3.73-3.27-8.75-7.75-14.51-12.9-20.38-18.22-51.18-45.75-66.42-56.25-17.87-12.32-25.97-17.62-38.22-25.65l-9.66-6.34c-4.72-3.95-3.12-11.47-.73-20.16.35-1.28.69-2.5.96-3.63,5.42-22.14,19.06-45.79,41.07-45.79.6,0,1.2.02,1.8.05,1.09.06,2.13.09,3.12.09,4.5,0,8.01-.58,10.83-1.05,1.96-.33,3.65-.61,5.15-.61,2.38,0,4.84.69,8.92,3.94,5.38,11.76,16.27,31.44,32.39,58.53.85,1.42,1.88,3.17,3.07,5.2,6.12,10.38,16.36,27.75,28.65,46.87,29.45,45.79,75.42,123.75,73.42,138.01-.19,1.32-.79,1.93-.81,1.96-.06.04-.36.22-.94.22Z"/>
    <path class="cls-2" d="M597.72,621.47c-2.75,2.08-6.33-1.23-4.47-4.14,17.54-27.47,34.36-55.54,50.72-82.84,25.08-41.85,51.01-85.13,79.67-126.49,4.82-6.95,11.96-10.94,19.61-10.94,3.32,0,6.64.75,9.86,2.22,15.39,7.06,26.3,13.36,39.87,26.41,3.48,3.35.47,12.26-2.19,20.13-.73,2.17-1.46,4.31-2.06,6.35-6.55,22.15-59.33,57.88-76.67,69.62-1.95,1.32-3.53,2.39-4.67,3.18-11.7,8.14-31.06,26.14-51.54,45.2-18.73,17.42-42.19,39.24-58.12,51.3Z"/>
  </g>
</svg>